<?xml version="1.0" standalone="no"?>
<!DOCTYPE svg PUBLIC "-//W3C//DTD SVG 20010904//EN"
 "http://www.w3.org/TR/2001/REC-SVG-20010904/DTD/svg10.dtd">
<svg version="1.0" xmlns="http://www.w3.org/2000/svg"
 width="105.000000pt" height="43.000000pt" viewBox="0 0 105.000000 43.000000"
 preserveAspectRatio="xMidYMid meet">

<g transform="translate(0.000000,43.000000) scale(0.100000,-0.100000)"
fill="#000000" stroke="none">
<path d="M1 358 c0 -55 3 -67 9 -50 19 46 80 41 100 -8 13 -31 18 -34 58 -30
50 4 84 -69 47 -100 -19 -16 -19 -44 0 -60 21 -18 19 -64 -5 -85 -25 -23 -67
-13 -82 20 -13 29 4 60 58 107 37 32 46 76 20 97 -12 10 -96 6 -96 -5 0 -3 11
-22 25 -44 14 -22 25 -45 25 -52 -1 -7 -11 7 -24 32 -22 41 -28 45 -67 50 -34
4 -46 11 -56 30 -11 23 -13 18 -13 -42 l0 -67 24 24 c36 36 86 15 86 -35 0
-58 -79 -80 -100 -27 -6 16 -9 4 -9 -45 l-1 -68 525 0 525 0 0 215 0 215 -525
0 -525 0 1 -72z m219 33 c15 -30 12 -56 -10 -76 -45 -41 -110 18 -76 70 21 31
70 35 86 6z m69 -54 c-2 -1 -13 -9 -24 -17 -19 -14 -19 -14 -6 3 7 9 18 17 24
17 6 0 8 -1 6 -3z m46 -7 c3 -6 -1 -7 -9 -4 -18 7 -21 14 -7 14 6 0 13 -4 16
-10z m-88 -52 c-3 -8 -6 -5 -6 6 -1 11 2 17 5 13 3 -3 4 -12 1 -19z m203 18
c0 -2 -9 -6 -20 -9 -11 -3 -18 -1 -14 4 5 9 34 13 34 5z m66 -29 c1 -24 1 -24
-3 -3 -3 15 -13 27 -26 30 -18 3 -18 4 3 3 20 -2 25 -8 26 -30z m132 26 l-68
-4 0 -129 0 -129 68 -4 67 -3 -72 -2 -73 -2 0 133 c0 74 3 137 7 140 3 4 36 6
72 5 l66 -2 -67 -3z m259 0 c-13 -3 -16 -11 -12 -26 5 -17 4 -19 -4 -7 -17 24
-13 40 12 39 17 -1 18 -2 4 -6z m123 -10 c0 -11 -3 -14 -8 -7 -4 6 -14 14 -22
17 -10 4 -8 6 8 6 15 1 22 -5 22 -16z m-734 -43 c30 0 34 -16 34 -126 l0 -95
-32 3 -33 3 -1 106 c-1 58 -5 112 -9 120 -6 11 -5 12 6 2 7 -7 23 -13 35 -13z
m91 -127 c-2 -27 -3 -5 -3 47 0 52 1 74 3 48 2 -27 2 -69 0 -95z m100 131 c-3
-3 -12 -4 -19 -1 -8 3 -5 6 6 6 11 1 17 -2 13 -5z m-40 -126 c-2 -24 -4 -5 -4
42 0 47 2 66 4 43 2 -24 2 -62 0 -85z m190 85 c-3 -10 -5 -4 -5 12 0 17 2 24
5 18 2 -7 2 -21 0 -30z m325 18 c8 11 9 11 6 1 -4 -16 -22 -18 -24 -2 -2 7 -1
6 3 -1 4 -8 8 -7 15 2z m-32 -36 c0 -5 -5 -3 -10 5 -5 8 -10 20 -10 25 0 6 5
3 10 -5 5 -8 10 -19 10 -25z m61 8 c-12 -20 -14 -14 -5 12 4 9 9 14 11 11 3
-2 0 -13 -6 -23z m-283 -39 c-2 -13 -13 -20 -35 -22 -26 -3 -33 -8 -36 -30 -4
-24 -4 -24 -6 6 -1 30 1 32 35 32 34 0 36 2 31 26 -3 16 -1 22 5 16 6 -6 8
-18 6 -28z m81 -27 c-2 -1 -13 -9 -24 -17 -19 -14 -19 -14 -6 3 7 9 18 17 24
17 6 0 8 -1 6 -3z m51 -12 c19 -22 8 -25 -12 -3 -10 10 -14 18 -9 18 5 0 14
-7 21 -15z m139 -40 c0 -5 -6 1 -13 14 l-14 24 -7 -22 c-4 -12 -9 -20 -11 -18
-3 2 1 16 7 31 l13 27 13 -23 c7 -13 12 -27 12 -33z m-68 18 c-12 -20 -14 -14
-5 12 4 9 9 14 11 11 3 -2 0 -13 -6 -23z m99 -8 c0 -5 -5 -3 -10 5 -5 8 -10
20 -10 25 0 6 5 3 10 -5 5 -8 10 -19 10 -25z m-211 -55 c18 0 34 7 40 18 6 9
11 12 11 6 0 -18 -23 -34 -51 -34 -29 0 -59 31 -59 60 1 8 7 0 15 -17 11 -27
20 -33 44 -33z m-312 44 c-3 -3 -12 -4 -19 -1 -8 3 -5 6 6 6 11 1 17 -2 13 -5z
m29 -40 c-3 -8 -13 -13 -23 -13 -17 1 -17 2 0 6 10 3 17 15 18 31 1 18 3 21 6
9 3 -10 2 -25 -1 -33z m-75 -12 c-7 -2 -18 1 -23 6 -8 8 -4 9 13 5 13 -4 18
-8 10 -11z m479 8 c0 -5 -10 -10 -22 -9 -22 0 -22 1 -3 9 11 5 21 9 23 9 1 1
2 -3 2 -9z m110 -6 c0 -2 -9 -4 -20 -4 -11 0 -20 4 -20 9 0 5 9 7 20 4 11 -3
20 -7 20 -9z"/>
<path d="M140 380 c-15 -29 -3 -59 26 -66 30 -8 54 11 54 40 0 46 -59 64 -80
26z"/>
<path d="M270 125 c0 -95 0 -95 25 -95 25 0 25 0 25 95 0 95 0 95 -25 95 -25
0 -25 0 -25 -95z"/>
</g>
</svg>
